<svg width="60" height="46" viewBox="0 0 60 46" fill="none" xmlns="http://www.w3.org/2000/svg">
<g clip-path="url(#clip0_30_39)">
<path d="M4.09091 45.4999H13.6364V22.3181L0 12.0908V41.409C0 43.6726 1.83409 45.4999 4.09091 45.4999Z" fill="#4285F4"/>
<path d="M46.3636 45.4999H55.9091C58.1727 45.4999 60 43.6658 60 41.409V12.0908L46.3636 22.3181" fill="#34A853"/>
<path d="M46.3636 4.5908V22.3181L60 12.0908V6.63625C60 1.57716 54.225 -1.30693 50.1818 1.72716" fill="#FBBC04"/>
<path d="M13.6364 22.3181V4.59082L30 16.8635L46.3636 4.59082V22.3181L30 34.5908" fill="#EA4335"/>
<path d="M0 6.63625V12.0908L13.6364 22.3181V4.5908L9.81818 1.72716C5.76818 -1.30693 0 1.57716 0 6.63625Z" fill="#C5221F"/>
</g>
<defs>
<clipPath id="clip0_30_39">
<rect width="60" height="45" fill="white" transform="translate(0 0.5)"/>
</clipPath>
</defs>
</svg>
