<svg width="60" height="60" viewBox="0 0 60 60" fill="none" xmlns="http://www.w3.org/2000/svg">
<g clip-path="url(#clip0_30_38)">
<path d="M30 0C13.4314 0 0 13.4314 0 30C0 46.5686 13.4314 60 30 60C46.5686 60 60 46.5686 60 30C60 13.4314 46.5686 0 30 0ZM17.0209 25.0261C15.9978 25.0264 14.9976 24.7233 14.1468 24.1551C13.2961 23.5868 12.6329 22.7791 12.2412 21.834C11.8495 20.8888 11.7469 19.8487 11.9463 18.8453C12.1457 17.8418 12.6383 16.92 13.3616 16.1965C14.0849 15.473 15.0066 14.9802 16.01 14.7805C17.0134 14.5808 18.0535 14.6832 18.9988 15.0747C19.944 15.4661 20.7519 16.1291 21.3203 16.9797C21.8888 17.8304 22.1922 18.8305 22.1922 19.8536C22.1918 21.2251 21.6469 22.5404 20.6772 23.5103C19.7076 24.4802 18.3924 25.0255 17.0209 25.0261ZM30 50.9804C28.9772 50.9804 27.9774 50.6771 27.127 50.1089C26.2766 49.5407 25.6138 48.733 25.2224 47.7881C24.831 46.8432 24.7286 45.8034 24.9281 44.8003C25.1277 43.7972 25.6202 42.8757 26.3434 42.1525C27.0666 41.4293 27.988 40.9368 28.9911 40.7373C29.9943 40.5377 31.034 40.6401 31.979 41.0315C32.9239 41.4229 33.7315 42.0858 34.2997 42.9362C34.868 43.7866 35.1712 44.7864 35.1712 45.8092C35.1712 47.1807 34.6264 48.496 33.6566 49.4658C32.6868 50.4356 31.3715 50.9804 30 50.9804ZM30 38.0013C28.9772 38.0013 27.9774 37.698 27.127 37.1298C26.2766 36.5616 25.6138 35.7539 25.2224 34.809C24.831 33.8641 24.7286 32.8243 24.9281 31.8212C25.1277 30.8181 25.6202 29.8967 26.3434 29.1734C27.0666 28.4502 27.988 27.9577 28.9911 27.7582C29.9943 27.5587 31.034 27.6611 31.979 28.0525C32.9239 28.4439 33.7315 29.1067 34.2997 29.9571C34.868 30.8075 35.1712 31.8073 35.1712 32.8301C35.1718 33.5095 35.0384 34.1824 34.7787 34.8102C34.5191 35.4381 34.1383 36.0086 33.658 36.4892C33.1778 36.9698 32.6075 37.3511 31.9799 37.6112C31.3522 37.8713 30.6794 38.0052 30 38.0052V38.0013ZM30 25.0222C28.9769 25.0225 27.9767 24.7193 27.1259 24.1511C26.2751 23.5829 25.612 22.7752 25.2203 21.83C24.8286 20.8849 24.7259 19.8448 24.9254 18.8414C25.1248 17.8379 25.6173 16.9161 26.3407 16.1926C27.064 15.4691 27.9857 14.9763 28.9891 14.7766C29.9925 14.5769 31.0326 14.6793 31.9778 15.0707C32.9231 15.4622 33.731 16.1252 34.2994 16.9758C34.8678 17.8265 35.1712 18.8266 35.1712 19.8497C35.1718 20.5292 35.0384 21.2021 34.7788 21.83C34.5191 22.458 34.1383 23.0286 33.6581 23.5093C33.1779 23.99 32.6076 24.3714 31.98 24.6317C31.3523 24.8919 30.6795 25.026 30 25.0261V25.0222ZM42.9791 25.0222C41.9561 25.0222 40.956 24.7189 40.1054 24.1505C39.2548 23.5821 38.5918 22.7743 38.2003 21.8291C37.8088 20.884 37.7063 19.8439 37.9059 18.8406C38.1055 17.8372 38.5981 16.9155 39.3215 16.1921C40.0449 15.4687 40.9666 14.9761 41.97 14.7765C42.9734 14.5769 44.0134 14.6794 44.9585 15.0709C45.9037 15.4624 46.7115 16.1253 47.2799 16.976C47.8483 17.8266 48.1516 18.8266 48.1516 19.8497C48.1521 20.5293 48.0187 21.2023 47.759 21.8303C47.4993 22.4583 47.1184 23.029 46.638 23.5098C46.1576 23.9905 45.5873 24.3718 44.9594 24.632C44.3316 24.8922 43.6587 25.0261 42.9791 25.0261V25.0222Z" fill="#EB531F"/>
</g>
<defs>
<clipPath id="clip0_30_38">
<rect width="60" height="60" fill="white"/>
</clipPath>
</defs>
</svg>
