<svg width="438" height="364" viewBox="0 0 438 364" fill="none" xmlns="http://www.w3.org/2000/svg">
<g clip-path="url(#clip0_24_625)">
<path d="M288.143 0.5H160.867C141.072 0.5 125.025 16.5055 125.025 36.2494V326.333C125.025 346.077 141.072 362.082 160.867 362.082H288.143C307.938 362.082 323.985 346.077 323.985 326.333V36.2494C323.985 16.5055 307.938 0.5 288.143 0.5Z" fill="#3F3D56"/>
<path d="M320.629 36.2518V326.333C320.619 334.924 317.193 343.16 311.102 349.234C305.012 355.309 296.755 358.726 288.142 358.736H160.868C152.255 358.726 143.998 355.309 137.908 349.234C131.817 343.16 128.391 334.924 128.382 326.333V36.2518C128.392 27.6612 131.817 19.4253 137.908 13.3508C143.998 7.27636 152.255 3.85934 160.868 3.8494H177.511V9.58359C177.511 12.1796 178.545 14.6691 180.386 16.5048C182.226 18.3404 184.722 19.3717 187.325 19.3719H261.685C264.288 19.3717 266.784 18.3404 268.624 16.5048C270.465 14.6691 271.499 12.1796 271.499 9.58359V3.8494H288.142C296.755 3.85934 305.012 7.27636 311.102 13.3508C317.193 19.4253 320.619 27.6612 320.629 36.2518Z" fill="white"/>
<path d="M124.109 73.8513C123.462 73.8505 122.841 73.5938 122.384 73.1373C121.926 72.6808 121.669 72.0619 121.668 71.4164V66.5466C121.668 65.9008 121.925 65.2815 122.383 64.8248C122.841 64.3682 123.462 64.1117 124.109 64.1117C124.757 64.1117 125.377 64.3682 125.835 64.8248C126.293 65.2815 126.55 65.9008 126.55 66.5466V71.4164C126.55 72.0619 126.292 72.6808 125.834 73.1373C125.377 73.5938 124.756 73.8505 124.109 73.8513Z" fill="#3F3D56"/>
<path d="M124.109 98.822C123.462 98.8213 122.841 98.5645 122.384 98.1081C121.926 97.6516 121.669 97.0327 121.668 96.3871V82.9821C121.668 82.3364 121.925 81.717 122.383 81.2604C122.841 80.8038 123.462 80.5472 124.109 80.5472C124.757 80.5472 125.377 80.8038 125.835 81.2604C126.293 81.717 126.55 82.3364 126.55 82.9821V96.3871C126.55 97.0327 126.292 97.6516 125.834 98.1081C125.377 98.5645 124.756 98.8213 124.109 98.822Z" fill="#3F3D56"/>
<path d="M124.109 118.897C123.462 118.896 122.841 118.639 122.384 118.183C121.926 117.726 121.669 117.108 121.668 116.462V103.057C121.668 102.411 121.925 101.792 122.383 101.335C122.841 100.879 123.462 100.622 124.109 100.622C124.757 100.622 125.377 100.879 125.835 101.335C126.293 101.792 126.55 102.411 126.55 103.057V116.462C126.55 117.108 126.292 117.726 125.834 118.183C125.377 118.639 124.756 118.896 124.109 118.897Z" fill="#3F3D56"/>
<path d="M324.29 107.94C323.643 107.939 323.022 107.682 322.565 107.226C322.107 106.769 321.85 106.15 321.849 105.505V72.7961C321.849 72.1503 322.106 71.531 322.564 71.0744C323.022 70.6177 323.643 70.3612 324.29 70.3612C324.938 70.3612 325.559 70.6177 326.016 71.0744C326.474 71.531 326.731 72.1503 326.731 72.7961V105.505C326.731 106.15 326.473 106.769 326.016 107.226C325.558 107.682 324.937 107.939 324.29 107.94Z" fill="#3F3D56"/>
<path d="M229.749 11.6675H210.829C210.425 11.6675 210.037 11.5072 209.75 11.2218C209.464 10.9364 209.304 10.5493 209.304 10.1457C209.304 9.7421 209.464 9.35503 209.75 9.06963C210.037 8.78424 210.425 8.6239 210.829 8.6239H229.749C230.154 8.6239 230.542 8.78424 230.828 9.06963C231.114 9.35503 231.275 9.7421 231.275 10.1457C231.275 10.5493 231.114 10.9364 230.828 11.2218C230.542 11.5072 230.154 11.6675 229.749 11.6675Z" fill="white"/>
<path d="M239.514 11.3632C240.188 11.3632 240.734 10.8181 240.734 10.1457C240.734 9.47335 240.188 8.92828 239.514 8.92828C238.84 8.92828 238.293 9.47335 238.293 10.1457C238.293 10.8181 238.84 11.3632 239.514 11.3632Z" fill="white"/>
<path d="M386.174 346.875C386.62 346.891 387.059 346.77 387.434 346.528C387.808 346.287 388.099 345.936 388.268 345.524C388.436 345.112 388.473 344.659 388.374 344.225C388.275 343.791 388.045 343.398 387.714 343.1C387.657 342.883 387.616 342.727 387.56 342.51C387.976 341.426 388.707 340.49 389.659 339.823C390.612 339.156 391.743 338.788 392.906 338.766C394.07 338.744 395.214 339.069 396.191 339.7C397.169 340.33 397.935 341.237 398.392 342.305C401.027 348.299 404.422 354.497 402.826 361.141C413.564 337.871 409.562 309.09 393.177 289.433C388.677 287.016 385.007 282.68 384.014 277.615C386.237 278.343 388.982 276.519 387.294 274.207C386.563 273.324 385.826 272.449 385.095 271.566C393.426 262.546 403.588 276.501 394.439 288.655C397.506 292.416 400.17 296.486 402.388 300.8C401.841 296.202 402.397 291.541 404.009 287.2C405.646 283.152 408.754 279.727 411.486 276.216C414.808 271.937 421.747 273.831 422.251 279.215C419.158 280.262 418.797 284.737 422.353 285.315C421.519 295.349 415.04 304.624 406.038 309.107C409.467 318.422 410.866 328.359 410.142 338.256C411.628 326.683 424.04 323.761 432.69 319.084C433.24 318.725 433.882 318.534 434.54 318.533C435.197 318.532 435.841 318.721 436.392 319.079C436.943 319.436 437.378 319.946 437.643 320.546C437.909 321.146 437.993 321.81 437.887 322.457C436.692 322.955 435.549 323.57 434.476 324.293C433.973 324.638 433.589 325.128 433.377 325.699C433.165 326.269 433.135 326.891 433.291 327.479C433.447 328.067 433.781 328.593 434.248 328.984C434.716 329.375 435.293 329.612 435.901 329.663C431.622 340.522 420.361 347.894 408.724 347.964C407.652 352.821 406.077 357.554 404.024 362.087L386.753 362.251C386.69 362.06 386.632 361.863 386.575 361.672C388.174 361.757 389.778 361.646 391.351 361.342C387.074 356.388 383.779 353.871 386.174 346.875Z" fill="#F2F2F2"/>
<path d="M51.8743 346.875C51.4286 346.891 50.9887 346.77 50.6142 346.528C50.2396 346.287 49.9486 345.936 49.7805 345.524C49.6124 345.112 49.5753 344.659 49.6743 344.225C49.7733 343.791 50.0035 343.398 50.3339 343.1C50.3908 342.883 50.4316 342.727 50.4885 342.51C50.0725 341.426 49.3414 340.49 48.3887 339.823C47.4361 339.156 46.3055 338.788 45.1417 338.766C43.9779 338.744 42.8341 339.069 41.8568 339.7C40.8796 340.33 40.1134 341.237 39.6565 342.305C37.0213 348.299 33.6257 354.497 35.2216 361.141C24.4838 337.871 28.4858 309.09 44.8707 289.433C49.3709 287.016 53.0411 282.68 54.0342 277.615C51.8114 278.343 49.0663 276.519 50.7543 274.207C51.4849 273.324 52.2224 272.449 52.9529 271.566C44.6221 262.546 34.4602 276.501 43.6088 288.655C40.5422 292.416 37.8781 296.486 35.6601 300.8C36.2067 296.202 35.6512 291.541 34.0393 287.2C32.4024 283.152 29.2944 279.727 26.5621 276.216C23.2402 271.937 16.301 273.831 15.7971 279.215C18.8905 280.262 19.251 284.737 15.6955 285.315C16.5295 295.349 23.008 304.624 32.0101 309.107C28.581 318.422 27.1818 328.359 27.9059 338.256C26.4198 326.683 14.0084 323.761 5.35843 319.084C4.80848 318.725 4.16561 318.534 3.50825 318.533C2.85089 318.532 2.20744 318.721 1.65641 319.079C1.10538 319.436 0.670576 319.946 0.405044 320.546C0.139512 321.146 0.0547278 321.81 0.161036 322.457C1.35631 322.955 2.49902 323.57 3.57234 324.293C4.07522 324.638 4.45906 325.128 4.67124 325.699C4.88342 326.269 4.91356 326.891 4.75751 327.479C4.60147 328.067 4.26689 328.593 3.79963 328.984C3.33238 329.375 2.75532 329.612 2.14756 329.663C6.42649 340.522 17.687 347.894 29.3237 347.964C30.3957 352.821 31.9709 357.554 34.0239 362.087L51.2946 362.251C51.3584 362.06 51.416 361.863 51.4736 361.672C49.874 361.757 48.27 361.646 46.6974 361.342C50.9745 356.388 54.2698 353.871 51.8748 346.875L51.8743 346.875Z" fill="#F2F2F2"/>
<path d="M170.24 18.1975H153.762C152.952 18.1975 152.176 17.8768 151.604 17.306C151.031 16.7352 150.71 15.9611 150.71 15.1539C150.71 14.3466 151.031 13.5725 151.604 13.0017C152.176 12.4309 152.952 12.1102 153.762 12.1102H170.24C171.049 12.1102 171.825 12.4309 172.398 13.0017C172.97 13.5725 173.291 14.3466 173.291 15.1539C173.291 15.9611 172.97 16.7352 172.398 17.306C171.825 17.8768 171.049 18.1975 170.24 18.1975Z" fill="#E6E6E6"/>
<path d="M278.264 17.8931C279.781 17.8931 281.011 16.6667 281.011 15.1538C281.011 13.641 279.781 12.4146 278.264 12.4146C276.748 12.4146 275.518 13.641 275.518 15.1538C275.518 16.6667 276.748 17.8931 278.264 17.8931Z" fill="#E6E6E6"/>
<path d="M286.809 17.8931C288.325 17.8931 289.555 16.6667 289.555 15.1538C289.555 13.641 288.325 12.4146 286.809 12.4146C285.292 12.4146 284.062 13.641 284.062 15.1538C284.062 16.6667 285.292 17.8931 286.809 17.8931Z" fill="#E6E6E6"/>
<path d="M295.353 17.8931C296.87 17.8931 298.099 16.6667 298.099 15.1538C298.099 13.641 296.87 12.4146 295.353 12.4146C293.836 12.4146 292.607 13.641 292.607 15.1538C292.607 16.6667 293.836 17.8931 295.353 17.8931Z" fill="#E6E6E6"/>
<path d="M276.344 60.7376H172.775C170.769 60.7403 168.845 61.5365 167.427 62.9514C166.008 64.3664 165.21 66.2847 165.207 68.2858V135.434C165.21 137.435 166.008 139.354 167.427 140.768C168.845 142.183 170.769 142.98 172.775 142.982H276.344C278.351 142.981 280.275 142.185 281.694 140.77C283.112 139.354 283.91 137.436 283.912 135.434V68.2858C283.91 66.2844 283.112 64.3655 281.694 62.9503C280.275 61.5351 278.351 60.7393 276.344 60.7376Z" fill="#F2F2F2"/>
<path d="M243.92 89.4035C234.561 105.909 224.232 121.849 212.989 137.139H196.747C207.385 124.213 218.031 111.286 228.685 98.3599C231.742 94.6379 235.059 90.7387 239.644 89.2263L243.92 89.4035Z" fill="#3F3D56"/>
<path d="M222.336 86.7568C220.642 88.5173 219.019 90.3488 217.49 92.2512C214.126 96.2922 210.809 100.369 207.48 104.433C205.407 106.962 203.334 109.49 201.284 112.019C200.633 111.602 200.016 111.136 199.436 110.625C196.163 107.791 194.132 103.791 193.78 99.4821C193.428 95.1732 194.782 90.8981 197.552 87.5728C200.322 84.2476 204.288 82.1368 208.599 81.6927C212.911 81.2486 217.225 82.5066 220.618 85.1971C221.229 85.6727 221.804 86.1941 222.336 86.7568Z" fill="#6C63FF"/>
<path d="M283.912 84.837V87.2901L282.813 86.8884L267.354 81.2516C262.319 79.4193 257.296 77.3253 252.097 76.0044C247.573 74.7136 242.769 74.775 238.279 76.1809C234.278 77.6576 230.616 79.9247 227.513 82.8464C226.14 84.1126 224.81 85.4092 223.522 86.7544C223.101 87.1988 222.68 87.6432 222.265 88.0875C221.02 89.4389 219.817 90.8207 218.676 92.2512C215.313 96.2931 211.993 100.372 208.667 104.432C206.592 106.964 204.517 109.49 202.466 112.016C195.619 120.374 188.812 128.748 182.045 137.139C181.134 137.128 180.227 137.014 179.342 136.798C186.244 128.245 193.18 119.715 200.147 111.207C200.306 111.012 200.465 110.817 200.623 110.623C201.441 109.606 202.277 108.583 203.107 107.567C206.58 103.324 210.055 99.0852 213.531 94.8505C216.058 91.7703 218.566 88.678 221.288 85.7561C221.453 85.5674 221.624 85.3848 221.801 85.1961C222.063 84.9161 222.326 84.6422 222.594 84.3561C228.508 78.2627 235.887 72.8755 244.724 72.7294C249.924 72.6503 254.947 74.2938 259.78 76.0287C264.986 77.9097 270.174 79.8211 275.374 81.7203L283.912 84.837Z" fill="#3F3D56"/>
<path d="M286.347 291.238H162.663C160.657 291.235 158.733 290.44 157.315 289.025C155.896 287.61 155.098 285.691 155.096 283.69V267.064C155.098 265.063 155.896 263.145 157.315 261.73C158.733 260.315 160.657 259.519 162.663 259.516H286.347C288.354 259.519 290.277 260.315 291.696 261.73C293.114 263.145 293.912 265.063 293.915 267.064V283.69C293.912 285.691 293.114 287.61 291.696 289.025C290.277 290.44 288.354 291.235 286.347 291.238Z" fill="#F2F2F2"/>
<path d="M286.347 206.016H162.663C160.657 206.014 158.733 205.218 157.315 203.803C155.896 202.388 155.098 200.47 155.096 198.469V181.843C155.098 179.842 155.896 177.923 157.315 176.508C158.733 175.093 160.657 174.297 162.663 174.295H286.347C288.354 174.297 290.277 175.093 291.696 176.508C293.114 177.923 293.912 179.842 293.915 181.843V198.469C293.912 200.47 293.114 202.388 291.696 203.803C290.277 205.218 288.354 206.014 286.347 206.016Z" fill="#F2F2F2"/>
<path d="M286.347 248.627H162.663C160.657 248.625 158.733 247.829 157.315 246.414C155.896 244.999 155.098 243.08 155.096 241.079V224.453C155.098 222.452 155.896 220.534 157.315 219.119C158.733 217.704 160.657 216.908 162.663 216.906H286.347C288.354 216.908 290.277 217.704 291.696 219.119C293.114 220.534 293.912 222.452 293.915 224.453V241.079C293.912 243.08 293.114 244.999 291.696 246.414C290.277 247.829 288.354 248.625 286.347 248.627Z" fill="#F2F2F2"/>
<path d="M239.532 272.532H203.089C202.657 272.532 202.242 272.36 201.936 272.055C201.631 271.75 201.459 271.337 201.459 270.906C201.459 270.474 201.631 270.061 201.936 269.756C202.242 269.451 202.657 269.28 203.089 269.28H239.532C239.964 269.28 240.379 269.451 240.684 269.756C240.99 270.061 241.162 270.474 241.162 270.906C241.162 271.337 240.99 271.75 240.684 272.055C240.379 272.36 239.964 272.532 239.532 272.532Z" fill="white"/>
<path d="M274.582 281.475H202.682C202.249 281.475 201.835 281.303 201.529 280.998C201.223 280.693 201.051 280.28 201.051 279.849C201.051 279.417 201.223 279.004 201.529 278.699C201.835 278.394 202.249 278.223 202.682 278.223H274.582C275.014 278.223 275.429 278.394 275.734 278.699C276.04 279.004 276.212 279.417 276.212 279.849C276.212 280.28 276.04 280.693 275.734 280.998C275.429 281.303 275.014 281.475 274.582 281.475Z" fill="white"/>
<path d="M183.729 286.279C189.765 286.279 194.659 281.398 194.659 275.377C194.659 269.356 189.765 264.475 183.729 264.475C177.692 264.475 172.798 269.356 172.798 275.377C172.798 281.398 177.692 286.279 183.729 286.279Z" fill="white"/>
<path d="M181.293 290.103C180.178 289.583 178.903 289.518 177.74 289.921C176.577 290.324 175.618 291.164 175.066 292.262C174.958 292.487 174.868 292.721 174.798 292.96L158.338 293.941L155.899 302.447L178.301 298.671C179.32 298.884 180.381 298.754 181.318 298.302C182.255 297.849 183.015 297.101 183.481 296.172C183.74 295.641 183.893 295.064 183.929 294.474C183.965 293.885 183.885 293.294 183.692 292.735C183.499 292.176 183.198 291.661 182.806 291.218C182.413 290.776 181.937 290.415 181.405 290.156C181.368 290.138 181.331 290.12 181.293 290.103Z" fill="#FFB6B6"/>
<path d="M144.962 248.15C143.877 247.707 142.71 247.503 141.539 247.55C140.368 247.598 139.221 247.896 138.176 248.426C137.131 248.955 136.213 249.702 135.483 250.617C134.754 251.532 134.231 252.593 133.949 253.727L129.424 271.954L130.275 303.841C130.275 303.841 153.895 308.362 157.86 305.456C161.826 302.55 161.453 300.387 161.826 302.55C162.198 304.714 163.9 305.621 163.923 304.761C163.947 303.9 164.14 304.047 165.128 303.788C166.116 303.529 170.477 301.926 170.477 301.926L170.672 292.834C170.672 292.834 163.462 290.108 161.713 290.921C159.964 291.735 162.086 293.084 159.964 291.735C157.843 290.385 157.611 286.125 157.248 289.964C156.885 293.804 155.823 294.518 154.233 292.811C152.642 291.104 145.273 292.195 145.273 292.195L149.962 256.749C150.198 254.966 149.836 253.155 148.931 251.6C148.026 250.044 146.631 248.831 144.962 248.15Z" fill="#6C63FF"/>
<path d="M304.029 342.711L304.278 335.997L278.43 331.846L278.064 341.756L304.029 342.711Z" fill="#FFB6B6"/>
<path d="M299.337 344.733L299.092 333.982L303.7 334.152L311.139 324.213C311.506 323.722 312.022 323.361 312.609 323.183C313.197 323.005 313.826 323.019 314.405 323.222C314.984 323.426 315.483 323.809 315.829 324.316C316.174 324.822 316.348 325.425 316.325 326.038L315.853 338.808L311.214 340.842L315.74 341.869L315.562 346.684L299.337 344.733Z" fill="#2F2E41"/>
<path d="M158.557 358.109L240.425 348.613C240.425 348.613 275.779 350.65 284.074 345.268L292.821 344.167L293.295 331.351C293.295 331.351 287.946 331.391 284.871 329.961C281.796 328.532 283.933 326.784 281.001 328.503C278.069 330.223 278.378 330.429 276.111 329.639C273.844 328.849 169.887 324.61 169.887 324.61L158.557 358.109Z" fill="#2F2E41"/>
<path d="M266.438 352.548L271.198 347.794L255.08 327.217L248.054 334.233L266.438 352.548Z" fill="#FFB6B6"/>
<path d="M261.62 350.847L268.771 342.799L272.033 346.05L284.264 343.81C284.868 343.699 285.491 343.784 286.044 344.052C286.596 344.32 287.048 344.757 287.334 345.299C287.619 345.841 287.724 346.461 287.632 347.066C287.54 347.672 287.256 348.232 286.822 348.666L277.767 357.707L272.979 356.051L275.597 359.874L272.183 363.283L261.62 350.847Z" fill="#2F2E41"/>
<path d="M126.257 313.389L127.071 332.259C128.029 354.473 152.557 367.918 171.577 356.32C171.927 356.106 172.279 355.884 172.632 355.655C172.632 355.655 179.842 353.724 179.623 350.665C179.404 347.607 181.166 346.118 182.725 346.952C184.284 347.786 204.693 318.896 204.693 318.896C204.693 318.896 247.099 339.994 256.453 344.96L266.324 342.278C266.324 342.278 270.039 344.028 268.701 341.497C267.363 338.966 267.123 340.178 266.712 337.42C266.301 334.663 265.249 331.244 264.611 331.387C263.974 331.531 212.151 295.354 212.151 295.354C212.151 295.354 203.708 286.832 193.236 292.459C193.018 293.285 193.204 293.314 193.204 293.314L158.609 321.43L153.721 312.171L126.257 313.389Z" fill="#2F2E41"/>
<path d="M149.509 244.053L134.676 237.119L130.236 244.826C130.236 244.826 118.309 261.802 118.136 274.048C117.963 286.294 120.08 289.936 120.08 289.936C120.08 289.936 114.937 293.771 117.509 296.114C120.08 298.458 125.772 299.47 121.4 300.486C117.028 301.502 118.136 311.789 123.019 313.615C127.901 315.441 154.122 315.425 154.122 315.425C153.887 314.628 153.869 313.782 154.072 312.975C154.275 312.169 154.691 311.431 155.276 310.839C157.309 308.807 159.139 310.265 157.309 307.101C155.478 303.937 152.426 305.763 154.867 301.502C157.309 297.241 157.308 295.967 157.308 295.967C157.308 295.967 162.284 286.521 154.788 276.272C154.331 275.648 154.716 275.624 154.716 275.624L148.662 255.392L149.509 244.053Z" fill="#6C63FF"/>
<path d="M125.605 214.899C125.731 218.024 123.756 222.452 122.784 225.121C121.744 227.976 126.25 231.764 129.134 232.594C129.284 231.605 129.779 230.701 130.531 230.04C130.323 230.982 130.305 231.956 130.478 232.905L154.858 238.441C159.244 233.375 163.654 226.092 162.692 217.309C162.923 215.641 162.654 213.942 161.92 212.426C161.186 210.91 160.019 209.643 158.566 208.786L146.241 201.524C140.998 200.333 134.396 199.615 130.609 202.85C128.917 204.352 127.588 206.216 126.721 208.302C125.855 210.389 125.473 212.645 125.605 214.899Z" fill="#2F2E41"/>
<path d="M147.398 235.765C155.15 235.765 161.435 229.497 161.435 221.764C161.435 214.032 155.15 207.764 147.398 207.764C139.645 207.764 133.361 214.032 133.361 221.764C133.361 229.497 139.645 235.765 147.398 235.765Z" fill="#FFB6B6"/>
<path d="M130.953 214.284L130.276 217.252L142.118 219.941C142.129 219.341 142.264 218.749 142.514 218.204C142.765 217.658 143.126 217.17 143.574 216.769C143.319 217.933 143.348 219.141 143.659 220.291C150.046 223.866 155.802 225.132 160.964 224.22C161.663 224.379 162.397 224.254 163.004 223.873C163.611 223.493 164.042 222.887 164.201 222.189C166.278 213.09 160.837 203.791 151.759 201.532C149.553 200.982 147.258 200.877 145.01 201.222C142.762 201.568 140.606 202.358 138.668 203.546C136.731 204.733 135.05 206.295 133.725 208.139C132.4 209.983 131.458 212.072 130.953 214.284Z" fill="#2F2E41"/>
<path d="M137.877 194.705C139.439 194.367 141.091 194.448 142.503 193.393L141.577 195.513C144.144 194.812 146.881 195.084 149.258 196.278C149.965 196.594 150.568 197.103 150.997 197.747C151.227 198.135 151.368 198.57 151.407 199.02C151.447 199.47 151.385 199.923 151.226 200.345C151.074 200.708 150.848 201.035 150.562 201.306C150.277 201.576 149.938 201.784 149.567 201.917C148.909 202.114 148.221 202.186 147.537 202.129C144.655 202.062 141.773 201.995 138.891 201.928C137.793 201.996 136.695 201.783 135.702 201.31C135.175 200.985 134.753 200.513 134.491 199.952C134.228 199.392 134.135 198.767 134.223 198.155C134.498 196.228 136.316 195.043 137.877 194.705Z" fill="#2F2E41"/>
<path d="M214.022 304.433C213.989 304.393 213.95 304.358 213.907 304.328C213.802 304.207 213.675 304.107 213.531 304.035L212.504 303.486L205.685 295.935C205.29 295.73 204.831 295.686 204.404 295.813L204.387 295.818L201.466 296.719L198.953 297.497L195.444 298.582L171.54 305.964L155.828 310.816C155.403 310.95 155.048 311.245 154.84 311.638C154.631 312.031 154.585 312.489 154.712 312.915C154.785 313.15 154.908 313.366 155.07 313.551L155.57 314.106L156.619 315.271L159.049 320.293L159.723 321.044C159.938 321.283 160.216 321.456 160.526 321.542C160.836 321.629 161.164 321.626 161.472 321.533L213.235 307.177C213.504 307.09 213.747 306.939 213.944 306.736C214.14 306.533 214.284 306.285 214.361 306.014C214.439 305.743 214.449 305.457 214.39 305.182C214.33 304.906 214.204 304.649 214.022 304.433Z" fill="#CCCCCC"/>
<path d="M210.949 229.74L209.947 229.902C209.672 229.947 209.426 230.099 209.263 230.325L208.822 230.941L204.838 240.876C204.676 241.103 204.611 241.385 204.657 241.66L205.124 244.491L203.36 295.019C203.404 295.28 203.545 295.515 203.754 295.678L211.489 305.998L211.669 306.141L212.059 306.445C212.259 306.599 212.506 306.677 212.759 306.667L213.416 306.636C213.565 306.628 213.711 306.59 213.844 306.522C213.977 306.454 214.095 306.359 214.188 306.243C214.283 306.128 214.351 305.994 214.389 305.85C214.427 305.706 214.433 305.556 214.408 305.409L212.164 230.604C212.118 230.329 211.965 230.084 211.739 229.922C211.512 229.759 211.23 229.694 210.954 229.739L210.949 229.74Z" fill="#CCCCCC"/>
<path d="M209.27 233.666L205.742 244.387L204.376 287.213L209.869 292.083L209.27 233.666Z" fill="#6C63FF"/>
<path d="M181.982 298.992C180.866 298.472 179.591 298.407 178.429 298.81C177.266 299.213 176.306 300.053 175.755 301.151C175.646 301.376 175.557 301.61 175.487 301.849L159.027 302.83L156.588 311.336L178.99 307.56C180.008 307.773 181.069 307.643 182.006 307.19C182.943 306.738 183.704 305.989 184.169 305.061C184.694 303.988 184.77 302.752 184.381 301.624C183.991 300.496 183.169 299.568 182.094 299.045C182.057 299.027 182.019 299.009 181.982 298.992Z" fill="#FFB6B6"/>
<path d="M145.65 257.039C144.566 256.596 143.398 256.392 142.228 256.439C141.057 256.487 139.91 256.785 138.865 257.315C137.82 257.844 136.901 258.591 136.172 259.506C135.443 260.421 134.919 261.481 134.638 262.616L130.112 280.843L130.964 312.73C130.964 312.73 154.584 317.251 158.549 314.345C162.514 311.439 162.142 309.276 162.514 311.439C162.887 313.602 164.588 314.51 164.612 313.65C164.636 312.789 164.828 312.936 165.816 312.677C166.805 312.418 171.166 310.815 171.166 310.815L171.361 301.723C171.361 301.723 164.151 298.997 162.402 299.81C160.653 300.624 162.774 301.973 160.653 300.624C158.531 299.274 158.299 295.014 157.937 298.853C157.574 302.692 156.512 303.407 154.921 301.7C153.331 299.993 145.962 301.083 145.962 301.083L150.651 265.638C150.887 263.855 150.524 262.044 149.62 260.488C148.715 258.933 147.319 257.72 145.65 257.039Z" fill="#6C63FF"/>
<path d="M3.2145e-06 362.776C-0.000281232 362.871 0.0183147 362.965 0.0547145 363.053C0.0911144 363.141 0.144606 363.221 0.212106 363.288C0.279607 363.356 0.359783 363.409 0.448031 363.445C0.536278 363.482 0.630851 363.5 0.726309 363.5H437.274C437.466 363.5 437.651 363.424 437.787 363.288C437.923 363.152 438 362.968 438 362.776C438 362.584 437.923 362.399 437.787 362.263C437.651 362.128 437.466 362.051 437.274 362.051H0.726272C0.630818 362.051 0.536254 362.07 0.448012 362.106C0.35977 362.142 0.279593 362.195 0.212097 362.263C0.144601 362.33 0.0911133 362.41 0.0547145 362.498C0.0183158 362.586 -0.000277968 362.68 3.2145e-06 362.776Z" fill="#CCCCCC"/>
<path d="M385.217 206.016H261.533C259.527 206.014 257.603 205.218 256.185 203.803C254.766 202.388 253.968 200.47 253.966 198.469V181.843C253.968 179.842 254.766 177.923 256.185 176.508C257.603 175.093 259.527 174.297 261.533 174.295H385.217C387.223 174.297 389.147 175.093 390.566 176.508C391.984 177.923 392.782 179.842 392.784 181.843V198.469C392.782 200.47 391.984 202.388 390.566 203.803C389.147 205.218 387.223 206.014 385.217 206.016Z" fill="#E6E6E6"/>
<path d="M338.402 187.31H301.959C301.527 187.31 301.112 187.139 300.806 186.834C300.501 186.529 300.329 186.115 300.329 185.684C300.329 185.253 300.501 184.839 300.806 184.534C301.112 184.23 301.527 184.058 301.959 184.058H338.402C338.834 184.058 339.249 184.23 339.554 184.534C339.86 184.839 340.032 185.253 340.032 185.684C340.032 186.115 339.86 186.529 339.554 186.834C339.249 187.139 338.834 187.31 338.402 187.31Z" fill="white"/>
<path d="M373.452 196.253H301.552C301.119 196.253 300.704 196.082 300.399 195.777C300.093 195.472 299.921 195.059 299.921 194.627C299.921 194.196 300.093 193.782 300.399 193.478C300.704 193.173 301.119 193.001 301.552 193.001H373.452C373.884 193.001 374.299 193.173 374.604 193.478C374.91 193.782 375.082 194.196 375.082 194.627C375.082 195.059 374.91 195.472 374.604 195.777C374.299 196.082 373.884 196.253 373.452 196.253Z" fill="white"/>
<path d="M282.598 201.058C288.635 201.058 293.529 196.177 293.529 190.156C293.529 184.135 288.635 179.254 282.598 179.254C276.562 179.254 271.668 184.135 271.668 190.156C271.668 196.177 276.562 201.058 282.598 201.058Z" fill="white"/>
<path d="M345.547 248.627H221.863C219.857 248.625 217.933 247.829 216.515 246.414C215.096 244.999 214.298 243.08 214.296 241.079V224.453C214.298 222.452 215.096 220.534 216.515 219.119C217.933 217.704 219.857 216.908 221.863 216.906H345.547C347.553 216.908 349.477 217.704 350.896 219.119C352.314 220.534 353.112 222.452 353.114 224.453V241.079C353.112 243.08 352.314 244.999 350.896 246.414C349.477 247.829 347.553 248.625 345.547 248.627Z" fill="#E6E6E6"/>
<path d="M298.732 229.921H262.289C261.857 229.921 261.442 229.75 261.136 229.445C260.831 229.14 260.659 228.726 260.659 228.295C260.659 227.864 260.831 227.45 261.136 227.145C261.442 226.84 261.857 226.669 262.289 226.669H298.732C299.164 226.669 299.579 226.84 299.884 227.145C300.19 227.45 300.362 227.864 300.362 228.295C300.362 228.726 300.19 229.14 299.884 229.445C299.579 229.75 299.164 229.921 298.732 229.921Z" fill="white"/>
<path d="M333.782 238.864H261.881C261.449 238.864 261.034 238.693 260.729 238.388C260.423 238.083 260.251 237.669 260.251 237.238C260.251 236.807 260.423 236.393 260.729 236.088C261.034 235.783 261.449 235.612 261.881 235.612H333.782C334.214 235.612 334.629 235.783 334.934 236.088C335.24 236.393 335.412 236.807 335.412 237.238C335.412 237.669 335.24 238.083 334.934 238.388C334.629 238.693 334.214 238.864 333.782 238.864Z" fill="white"/>
<path d="M242.928 243.668C248.965 243.668 253.859 238.787 253.859 232.766C253.859 226.745 248.965 221.865 242.928 221.865C236.892 221.865 231.998 226.745 231.998 232.766C231.998 238.787 236.892 243.668 242.928 243.668Z" fill="white"/>
</g>
<defs>
<clipPath id="clip0_24_625">
<rect width="438" height="363" fill="white" transform="translate(0 0.5)"/>
</clipPath>
</defs>
</svg>
